# xmcd CD database file
#
# Track frame offsets:
#	150
#	14520
#	30249
#	46055
#	60499
#	91318
#	117309
#	132943
#	150108
#	175891
#	193916
#	211441
#	236588
#	259240
#	281440
#	297103
#
# Disc length: 4314 seconds
#
# Revision: 2
# Processed by: cddbd v1.5.1PL2 Copyright (c) Steve Scherf et al.
# Submitted via: CDex 1.51
#
DISCID=d710d810
DTITLE=Various Artist - moreorless Jazz
DYEAR=2005
DGENRE=Jazz
TTITLE0=Madeleine Peyroux - Don't wait too long
TTITLE1=Peter Cincotti - Some kind of wonderful
TTITLE2=Renee Olstead - A love that will last
TTITLE3=Nils Landgren - Fragile
TTITLE4=Terry Callier - Paris Blues
TTITLE5=Kevyn Lettau - Message in a bottle
TTITLE6=Fessler - If you never come to me
TTITLE7=Andy Ezrin - Stompin' at the savoy
TTITLE8=Michael Franks - Monk's new tune
TTITLE9=Stacey Kent - Under a blanket of blue
TTITLE10=Slim Man - Sweet little angel
TTITLE11=David Sanborn - Daydreaming
TTITLE12=Stephan Oberhoff - Amistad
TTITLE13=Z Start - Lonely
TTITLE14=Peter Eldridge - Someone to lighten up my life
TTITLE15=Freddie Ravel - In a sentimental mood
EXTD=YEAR: 2005
EXTT0=
EXTT1=
EXTT2=
EXTT3=
EXTT4=
EXTT5=
EXTT6=
EXTT7=
EXTT8=
EXTT9=
EXTT10=
EXTT11=
EXTT12=
EXTT13=
EXTT14=
EXTT15=
PLAYORDER=
